<svg xmlns="http://www.w3.org/2000/svg" viewBox="0 0 512 512">
  <defs>
    <linearGradient id="grad1" x1="0%" y1="0%" x2="100%" y2="100%">
      <stop offset="0%" style="stop-color:#22c55e;stop-opacity:1" />
      <stop offset="100%" style="stop-color:#16a34a;stop-opacity:1" />
    </linearGradient>
  </defs>
  <rect width="512" height="512" rx="96" fill="url(#grad1)"/>
  <g fill="white">
    <path d="M160 128h192c17.7 0 32 14.3 32 32v192c0 17.7-14.3 32-32 32H160c-17.7 0-32-14.3-32-32V160c0-17.7 14.3-32 32-32zm0 32v192h192V160H160z"/>
    <path d="M200 200h112v24H200zm0 48h80v24h-80zm0 48h112v24H200z"/>
    <circle cx="360" cy="360" r="72" fill="white"/>
    <path d="M360 308l38 66h-76z" fill="#22c55e"/>
  </g>
</svg>

